<?xml version="1.0" encoding="utf-8"?>
<!-- Generator: Adobe Illustrator 21.1.0, SVG Export Plug-In . SVG Version: 6.00 Build 0)  -->
<svg version="1.1" id="Layer_1" xmlns="http://www.w3.org/2000/svg" xmlns:xlink="http://www.w3.org/1999/xlink" x="0px" y="0px"
	 viewBox="0 0 35.4 32" style="enable-background:new 0 0 35.4 32;" xml:space="preserve">
<style type="text/css">
	.st0{fill:#FF1A3E;}
</style>
<path class="st0" d="M35.4,10C34.3,2.1,28.1,0,24.9,0h0c-3.3-0.3-5.7,1.7-7.2,3.2c-1.5-1.4-3.9-3.4-7.2-3.2h0C7.3,0,1.1,2.1,0,10
	C0,10.5-0.5,14.9,3,20.4C6.6,26,14.6,30.7,17,31.7l0.8,0.3l0.8-0.3c2.4-1,10.4-5.7,14-11.3C36,14.9,35.5,10.5,35.4,10L35.4,10z
	 M28.6,18.3c-2.5,3.9-8.2,7.6-10.9,9c-2.7-1.4-8.4-5.1-10.9-9C4.1,14.2,4.5,11,4.5,11c0.8-6.1,6.5-6.3,6.5-6.3
	c3-0.3,4.9,2.1,5.2,2.4l0.6,0.7L17.7,9l0.8-1.1l0.6-0.8c0.2-0.2,1.9-2.7,5.1-2.5c0,0,5.9,0,6.5,6.3C30.8,11.1,31.2,14.2,28.6,18.3
	L28.6,18.3z"/>
</svg>
